<svg width="44" height="58" viewBox="0 0 44 58" fill="none" xmlns="http://www.w3.org/2000/svg">
<path d="M22.707 37.8383C22.3165 38.2288 21.6833 38.2288 21.2928 37.8383L9.98202 26.5274C9.5915 26.1369 8.95833 26.1369 8.56781 26.5274L0.707104 34.3881C0.316581 34.7786 0.316579 35.4118 0.7071 35.8023L12.7304 47.8257C12.7317 47.8271 12.7317 47.8292 12.7304 47.8305V47.8305C12.7291 47.8318 12.7291 47.834 12.7304 47.8353L20.6746 55.7795L21.9999 57.0953V57.0953C22.0025 57.098 22.0068 57.098 22.0095 57.0953L29.9592 49.1458L31.2672 47.8281L43.2929 35.8024C43.6834 35.4118 43.6834 34.7786 43.2929 34.3881L35.4317 26.5274C35.0412 26.1369 34.408 26.1369 34.0175 26.5274L22.707 37.8383ZM27.3134 46.4998L26.0096 47.8132L22.0044 51.8182C22.0019 51.8207 21.9979 51.8207 21.9953 51.8183V51.8183L17.997 47.8198C17.9957 47.8185 17.9957 47.8163 17.997 47.8149V47.8149C17.9983 47.8136 17.9983 47.8114 17.997 47.8101L5.98923 35.8023C5.5987 35.4118 5.5987 34.7786 5.98924 34.3881L8.56781 31.8096C8.95833 31.4191 9.59149 31.4191 9.98201 31.8096L21.2928 43.1205C21.6833 43.511 22.3165 43.511 22.707 43.1205L34.0175 31.8097C34.408 31.4191 35.0412 31.4191 35.4317 31.8096L38.0103 34.3881C38.4008 34.7787 38.4009 35.4118 38.0103 35.8023L27.3134 46.4998Z" fill="#FF93F4"/>
<path d="M12.7304 22.011C12.7291 22.0125 12.7291 22.0148 12.7305 22.0162L20.6746 29.9603L21.9999 31.276V31.276C22.0025 31.2787 22.0068 31.2787 22.0095 31.276L29.9592 23.3264L31.2672 22.0088L43.2929 9.9826C43.6834 9.59208 43.6834 8.95892 43.2929 8.56841L35.4317 0.707138C35.0412 0.3166 34.408 0.316609 34.0175 0.707157L22.707 12.0184C22.3165 12.4089 21.6833 12.4089 21.2928 12.0184L9.98205 0.707163C9.59152 0.316614 8.95832 0.316616 8.56779 0.707167L0.707062 8.56839C0.316559 8.95892 0.316569 9.59207 0.707085 9.98258L12.7302 22.0057C12.7317 22.0072 12.7317 22.0095 12.7304 22.011V22.011ZM5.98919 9.9826C5.59868 9.59208 5.59868 8.95892 5.9892 8.56841L8.56781 5.9898C8.95833 5.59928 9.5915 5.59928 9.98202 5.98981L21.2928 17.3007C21.6833 17.6912 22.3165 17.6912 22.707 17.3006L34.0175 5.98982C34.408 5.59929 35.0412 5.59928 35.4317 5.98981L38.0103 8.56839C38.4008 8.95892 38.4008 9.59208 38.0103 9.98261L27.3129 20.68L26.0077 21.9947L22.004 25.9984C22.0015 26.0009 21.9974 26.0009 21.9949 25.9984V25.9984L17.9965 21.9999C17.9952 21.9986 17.9952 21.9965 17.9965 21.9952V21.9952C17.9978 21.9938 17.9978 21.9917 17.9965 21.9904L5.98919 9.9826Z" fill="#FF93F4"/>
</svg>
